<?xml version="1.0" encoding="UTF-8"?>
<svg version="1.1" viewBox="0 0 2000 2000" width="2000" height="2000" xmlns="http://www.w3.org/2000/svg">
<path transform="translate(595,615)" d="m0 0 10 2 20 10 22 14 17 13 14 12 6 5 7 8 10 10 9 11 12 16 14 22 12 21 12 23 11 22 9 8 19 13 11 9 8 6 13 10 6 5 11-1 7 8 10 13 11 13 8 8 10 8 4 3-1-13-1-14h-13l-3-12-2-19 21-4 38-6 5 1 3 22v8l-1 1-8 1 1 16 9 60 3 9 13 11 10 9 5 3v-23l1-1 11-1 2-86-8 1-4-1v-13l1-18 1-1h23l28 1 12 1v31l-2 1h-8l-1 11-1 71v5l9-1 5 1 9-8 7-10 9-8 8-5 4-13 6-39-11-1 3-30 1-3 8 1 53 7 5 2-1 18 10-8 11-9 13-11 12-9 14-10 12-7 8-4 10-18 13-25 14-24 10-16 11-16 10-13 12-14 12-13 13-12 14-11 13-10 15-10 18-10 7-3h9l11 7 13 12 11 9 11 10 9 7 16 16 2 6-4 8-8 10-9 10-7 8-9 10-10 10-8 7-15 13-16 12-21 14-16 9-17 9-25 10-33 11-31 9-12 6-13 10-13 11-11 9-14 12-8 7-17 14-15 13-11 9-10 9-6 5-2 13-3 16 25 3 7 1 2-8 1-9 19 2 18 3 2 1-1 8-6 38-1 4-12-1-71-11-31-5h-5l-11 10-11 9-10 9h-2l2 4 14 11 15 12 2 1v2l4 2 7 5 8-1 6 4v2l4 2 6 4 7-1 7 5 5 10 10 8 10 9 1 2-1 6 5 5 10 9 14 11 16 13 2 1 18 1 1 1v15l4 5 11 9 9 7v2l4 2 11 10 11 9 15 13 14 11 17 14 14 11 11 9 14 12 11 9 14 13 8 7 13 12 10 9 18 18 8 10 4 7v7l-5 5-8 3h-7l-10-3-16-10-13-10-16-13-14-12-8-7-7-8-9-10-11-9-16-13-17-14-11-9-13-11-12-9-9-1-54-2-1-1v-16l5-3v-28l-13-11-11-9-5-4 11 42 3 11 6 1 1 4v13l-1 1h-31l-2-2v-15l3-2 1-5-19-1 4 8v16h-31v-16l4-4h2l2-10 11-42 4-15 2-3h8v-3l-4-2-5-4-7 1-24-16-10-3-8-8-1-7-11-9-3-3 1-6-11-10-28-22-7-5-4 1-14 10-13 11-11 9-7 6 1 1v5l-13 12-2 7-6 8-9 2-16 12-6 4-6-1-8 7-1 2 8 2v24l-5 1h-16l-1-7h-15v16h4l3-3 7-1h11l1 1 1 14v11l-1 1h-20l-3-3-4-1 1 17h16l1-8 10-1h10l1 1v26l-1 1-34 1h-33v-18l5-1v-30l-13 11-2 2v17l6 2v16l-1 1-27 1-1-1-2-14-6 3-5 6-3 7-6 4-16 13-22 18-13 11-10 8-14 12-8 7-15 14-10 9-14 11-15 12-24 16-12 5-10-1-8-5-2-4 1-6 7-11 16-17 11-11 8-7 11-10 11-9 14-12 17-13 14-12 11-9 10-8 14-12 14-11 11-9 3-2v-42l-4-1-1-3v-15l1-1h54l9 3 5 1 11-9 13-11 11-9 15-14v-6l4-6 8-7 10-8 3-8 5-5 9-1 7-6 6-5 10 1 10-9 11-9 13-11 7-6-5-5-13-11-11-9-7-4-15 2-14 2-9-10-12-17-9-12-16-21-8-11v3l4 30 1 13 11-1 2 5 4 22v4l-19 4-37 6h-6l-3-9-2-21 11-3-2-18-10-64-1-3-12 1-1-1-4-29-1-6-4-2-18-13-14-11-7-3-35-10-26-9-18-8-16-8-17-9-19-12-21-16-15-13-16-15-9-10-7-8-2-4-3-1-7-8-10-13-2-3 1-5 6-7 8-7 10-9 14-12 12-11 10-9 11-8zm0 4-9 7-11 10-8 7-10 9-11 9-7 7-11 9-3 3 1 5 11 12 10 11 5-1 11-9 9-7 14-12 33-33 7-10v-3l-12-7-16-7zm810 0-5 8-11 28-6 15-11 35v2l9-1 38-8 44-9 10-2 3-2v-5l-5-6h-2v-2l-8-7-10-9-11-9-11-10-11-9-10-8zm-625 199-1 9-5 3-14 2 2 4 11 9 16 12 7 5 12-1 22-4-2-4-16-12-21-16-9-7zm442 1-7 3-12 8-13 10-11 9-14 12-14 11-6 5-4 4h-9l-3 9-5 28-1 11 4-2 10-9 10-8 10-9 11-9 15-13 16-13 14-12 17-13 10-7-1-2-11-3-4-4-1-6zm-332 89 2 5 5 6 4 3h2l-2-6-5-5zm188 25-9 7-5 4 1 4 8 8 3-1 2-10 2-8v-4zm-17 20-6 4-10 8-3 4-1 22h-26l-11 9v3l8 7 10 8 5 1 12-11 11-9 8-7 3-13 2-9 1-9 3-2-1-4zm-113 10 1 11 2 17-7 1 1 3 11 8 14 12 11 9 14 12 17 13 16 13 13 10 11 9 4-1 12-11 4-4-5-6-14-11-16-13-14-11-11-9-16-13-14-11-13-11-10-8-10-9zm42 27 6 7 3 1 7-4 2-4zm-15 37-16 13-11 9-15 13-1 4 13 13 3 2 4-1 9-7 16-13 18-14 1-4-9-8-10-7zm-56 39-10 8v3l14 13 10 8 6-1 5-4 1-5-8-8-8-7-4-2-2-4zm162 0-7 7-11 9-6 6 1 4 9 7 5-1 12-11 11-10v-3l-10-8zm-187 20-10 8-6 7 2 4 7 8 9 9 6 4 7-4 12-9 3-2-2-4-11-9-12-11zm213 0-10 9-12 12-3 2 1 4 9 8 9 6 5-3 10-9 12-12-1-4-10-9-6-4zm22 25-17 17 1 3 8 7 12 9 5 2 3 7 10 9 13 10 8 7h1l1-13-5-4-1-3v-12l5-3-2-4-13-10-17-14-10-8zm-255 1-9 7-13 11-11 9-6 6v2l44-1 5-5v-2l4-2 6-6-2-4-14-14zm-48 40-7 6-1 6v11l-2 9-4 5 1 4 5 1 12-10 5-4v-15l-5-2-1-11zm-48 14-1 1v19l6-1 8-5 6-7v-6l-1-1zm418 1-1 16v17l1 5 9 7 4 4 4-1 1-6 19-1v26l5 5 13 11 14 11 14 12 14 11 12 10 11 8 4-1 10-9 6-9-5-5-17-14-16-13-14-11-11-9-16-13-14-12-13-11-14-12-11-9-8-7zm-72 8-4 12v9h9l1-4-4-17zm-347 26-1 5v10l3 5 3 2 10-7 4-4-1-8-4-3zm419 10v7l1 1h7l-2-4-5-4zm-442 5-3 3 4-1 1-2zm-4 3m-3 3-11 8-13 11-14 11-15 13-10 8-8 7-1 3 8 10 9 8 5-1 13-11 10-8 13-11 11-9 16-13 8-7v-1l-7-1h-12v-17z" fill="#353B4F"/>
<path transform="translate(1017,1146)" d="m0 0h33l1 1v15l-4 2 3 16 3 11 1 6 2 1 3-14 4-16-3-7v-15h31l1 1v16l-5 3-9 28-8 29-4 12-2 1h-19l-4-9-13-44-6-18-4-2-1-8z" fill="#373D51"/>
<path transform="translate(909,1146)" d="m0 0h24l1 4v8l-2 6-1 1 1 9 5 22v2h2l4-17 4-13-2-5-1-1v-16h31v17l-5 1-21 70-3 2h-20l-2-3-3-12-12-45-3-10-4-2-1-2v-15z" fill="#383D52"/>
<path transform="translate(981,1146)" d="m0 0h31l1 3v14l-4 2v49l5 2v19h-34v-18l5-3 1-3v-46l-5-1-1-17z" fill="#353B4F"/>
</svg>
